name rise43.5482peak65.4966fall89.1036.mot
datacolumns 19
datarows 35
range 5.22831100000000 5.28497900000000
endheader
time	ground_force1_vx	ground_force1_vy	ground_force1_vz	ground_force1_px	ground_force1_py	ground_force1_pz	ground_force2_vx	ground_force2_vy	ground_force2_vz	ground_force2_px	ground_force2_py	ground_force2_pz	ground_torque1_x	ground_torque1_y	ground_torque1_z	ground_torque2_x	ground_torque2_y	ground_torque2_z	
5.22831100000000	-10.20875000000000	43.76350200000000	-11.87358000000000	0.28778500000000	0.00000000000000	0.09186800000000	-63.62349000000000	810.86473100000001	-48.94578700000000	0.06893200000000	0.00000000000000	-0.07299900000000	0.00000000000000	-6.29915000000000	0.00000000000000	0.00000000000000	-13.99594500000000	0.00000000000000	
5.22997600000000	-10.97336000000000	49.93166400000000	-13.03071900000000	0.28987600000000	0.00000000000000	0.09247200000000	-64.38305900000000	807.46043399999996	-48.45318900000000	0.06809600000000	0.00000000000000	-0.07287400000000	0.00000000000000	-6.96779600000000	0.00000000000000	0.00000000000000	-13.97972900000000	0.00000000000000	
5.23164600000000	-11.54697900000000	56.02315100000000	-14.03280200000000	0.29190700000000	0.00000000000000	0.09303900000000	-65.15188900000000	803.91280600000005	-47.94064600000000	0.06725800000000	0.00000000000000	-0.07274600000000	0.00000000000000	-7.56656600000000	0.00000000000000	0.00000000000000	-13.96606800000000	0.00000000000000	
5.23330500000000	-11.91468300000000	61.97924700000000	-14.86223700000000	0.29388800000000	0.00000000000000	0.09357100000000	-65.92892100000000	800.21915100000001	-47.40803100000000	0.06641900000000	0.00000000000000	-0.07261400000000	0.00000000000000	-8.08565100000000	0.00000000000000	0.00000000000000	-13.95485400000000	0.00000000000000	
5.23497800000000	-12.07146700000000	67.76611000000000	-15.51126500000000	0.29582300000000	0.00000000000000	0.09407200000000	-66.71299100000000	796.37674900000002	-46.85524900000000	0.06557900000000	0.00000000000000	-0.07247800000000	0.00000000000000	-8.52021000000000	0.00000000000000	0.00000000000000	-13.94596100000000	0.00000000000000	
5.23664400000000	-12.02132700000000	73.37402299999999	-15.98119700000000	0.29771900000000	0.00000000000000	0.09454500000000	-67.50283399999999	792.38286800000003	-46.28223800000000	0.06473800000000	0.00000000000000	-0.07234000000000	0.00000000000000	-8.87005800000000	0.00000000000000	0.00000000000000	-13.93924800000000	0.00000000000000	
5.23830800000000	-11.77576600000000	78.81478600000000	-16.28105200000000	0.29957800000000	0.00000000000000	0.09499100000000	-68.29708400000000	788.23477700000001	-45.68897300000000	0.06389700000000	0.00000000000000	-0.07219700000000	0.00000000000000	-9.13903300000000	0.00000000000000	0.00000000000000	-13.93455500000000	0.00000000000000	
5.23997500000000	-11.35193900000000	84.11778400000000	-16.42578800000000	0.30140300000000	0.00000000000000	0.09541300000000	-69.09427400000000	783.92975400000000	-45.07546400000000	0.06305800000000	0.00000000000000	-0.07205200000000	0.00000000000000	-9.33412900000000	0.00000000000000	0.00000000000000	-13.93171000000000	0.00000000000000	
5.24164000000000	-10.77065500000000	89.32528300000000	-16.43435500000000	0.30319600000000	0.00000000000000	0.09581300000000	-69.89284200000000	779.46510699999999	-44.44176500000000	0.06221900000000	0.00000000000000	-0.07190300000000	0.00000000000000	-9.46453000000000	0.00000000000000	0.00000000000000	-13.93052100000000	0.00000000000000	
5.24331000000000	-10.05442900000000	94.48748999999999	-16.32775400000000	0.30495700000000	0.00000000000000	0.09619200000000	-70.69113000000000	774.83818399999996	-43.78797200000000	0.06138200000000	0.00000000000000	-0.07175100000000	0.00000000000000	-9.54062000000000	0.00000000000000	0.00000000000000	-13.93078200000000	0.00000000000000	
5.24497600000000	-9.22572500000000	99.65779999999999	-16.12726700000000	0.30668600000000	0.00000000000000	0.09655200000000	-71.48739000000000	770.04639199999997	-43.11422400000000	0.06054700000000	0.00000000000000	-0.07159500000000	0.00000000000000	-9.57306000000000	0.00000000000000	0.00000000000000	-13.93227400000000	0.00000000000000	
5.24664600000000	-8.30551200000000	104.88859700000000	-15.85296600000000	0.30838400000000	0.00000000000000	0.09689400000000	-72.27978500000000	765.08720900000003	-42.42070700000000	0.05971500000000	0.00000000000000	-0.07143700000000	0.00000000000000	-9.57200700000000	0.00000000000000	0.00000000000000	-13.93476200000000	0.00000000000000	
5.24830500000000	-7.31217500000000	110.22782500000000	-15.52256100000000	0.31004900000000	0.00000000000000	0.09721800000000	-73.06639600000000	759.95820700000002	-41.70765600000000	0.05888600000000	0.00000000000000	-0.07127500000000	0.00000000000000	-9.54648900000000	0.00000000000000	0.00000000000000	-13.93799700000000	0.00000000000000	
5.24997200000000	-6.26081100000000	115.71646800000001	-15.15064100000000	0.31168000000000	0.00000000000000	0.09752700000000	-73.84522400000000	754.65706599999999	-40.97535500000000	0.05806100000000	0.00000000000000	-0.07110900000000	0.00000000000000	-9.50397700000000	0.00000000000000	0.00000000000000	-13.94171900000000	0.00000000000000	
5.25164100000000	-5.16290400000000	121.38697600000000	-14.74826800000000	0.31327800000000	0.00000000000000	0.09782000000000	-74.61419700000000	749.18159400000002	-40.22413900000000	0.05723900000000	0.00000000000000	-0.07094100000000	0.00000000000000	-9.45014500000000	0.00000000000000	0.00000000000000	-13.94565500000000	0.00000000000000	
5.25331400000000	-4.02632300000000	127.26256500000000	-14.32291100000000	0.31483900000000	0.00000000000000	0.09809900000000	-75.37117600000001	743.52974700000004	-39.45439200000000	0.05642200000000	0.00000000000000	-0.07077000000000	0.00000000000000	-9.38880500000000	0.00000000000000	0.00000000000000	-13.94952000000000	0.00000000000000	
5.25498000000000	-2.85558500000000	133.35731000000001	-13.87866200000000	0.31636300000000	0.00000000000000	0.09836400000000	-76.11395700000000	737.69964800000002	-38.66655500000000	0.05560900000000	0.00000000000000	-0.07059500000000	0.00000000000000	-9.32198900000000	0.00000000000000	0.00000000000000	-13.95302000000000	0.00000000000000	
5.25663900000000	-1.65233200000000	139.67686200000000	-13.41665400000000	0.31784800000000	0.00000000000000	0.09861600000000	-76.84028100000000	731.68960600000003	-37.86111700000000	0.05480100000000	0.00000000000000	-0.07041800000000	0.00000000000000	-9.25015400000000	0.00000000000000	0.00000000000000	-13.95585000000000	0.00000000000000	
5.25830800000000	-0.41592400000000	146.21962300000001	-12.93563000000000	0.31929200000000	0.00000000000000	0.09885600000000	-77.54783999999999	725.49813400000005	-37.03862200000000	0.05399900000000	0.00000000000000	-0.07023700000000	0.00000000000000	-9.17245700000000	0.00000000000000	0.00000000000000	-13.95770000000000	0.00000000000000	
5.25997400000000	0.85590000000000	152.97820899999999	-12.43257700000000	0.32069500000000	0.00000000000000	0.09908300000000	-78.23428300000000	719.12396799999999	-36.19966700000000	0.05320100000000	0.00000000000000	-0.07005400000000	0.00000000000000	-9.08709100000000	0.00000000000000	0.00000000000000	-13.95824900000000	0.00000000000000	
5.26163900000000	2.16636500000000	159.94103899999999	-11.90338100000000	0.32205400000000	0.00000000000000	0.09930000000000	-78.89722300000000	712.56608600000004	-35.34490300000000	0.05240900000000	0.00000000000000	-0.06986800000000	0.00000000000000	-8.99161500000000	0.00000000000000	0.00000000000000	-13.95717200000000	0.00000000000000	
5.26330500000000	3.51905400000000	167.09389500000000	-11.34343400000000	0.32336700000000	0.00000000000000	0.09950500000000	-79.53424500000000	705.82371999999998	-34.47503100000000	0.05162300000000	0.00000000000000	-0.06968000000000	0.00000000000000	-8.88329100000000	0.00000000000000	0.00000000000000	-13.95413900000000	0.00000000000000	
5.26497200000000	4.91737800000000	174.42137000000000	-10.74816900000000	0.32463400000000	0.00000000000000	0.09970000000000	-80.14291000000000	698.89637100000004	-33.59080600000000	0.05084300000000	0.00000000000000	-0.06948800000000	0.00000000000000	-8.75936600000000	0.00000000000000	0.00000000000000	-13.94881600000000	0.00000000000000	
5.26663900000000	6.36416400000000	181.90808699999999	-10.11349900000000	0.32585200000000	0.00000000000000	0.09988400000000	-80.72077100000000	691.78381999999999	-32.69303500000000	0.05006800000000	0.00000000000000	-0.06929400000000	0.00000000000000	-8.61731400000000	0.00000000000000	0.00000000000000	-13.94086500000000	0.00000000000000	
5.26831500000000	7.86135400000000	189.53966500000001	-9.43613300000000	0.32702000000000	0.00000000000000	0.10005900000000	-81.26537100000000	684.48613899999998	-31.78257600000000	0.04929900000000	0.00000000000000	-0.06909800000000	0.00000000000000	-8.45502100000000	0.00000000000000	0.00000000000000	-13.92994800000000	0.00000000000000	
5.26997500000000	9.40982500000000	197.30340500000000	-8.71378100000000	0.32813700000000	0.00000000000000	0.10022400000000	-81.77425800000000	677.00369400000000	-30.86033800000000	0.04853600000000	0.00000000000000	-0.06889900000000	0.00000000000000	-8.27089800000000	0.00000000000000	0.00000000000000	-13.91572700000000	0.00000000000000	
5.27164800000000	11.00931700000000	205.18869799999999	-7.94525200000000	0.32920100000000	0.00000000000000	0.10038000000000	-82.24499000000000	669.33715600000005	-29.92728000000000	0.04777800000000	0.00000000000000	-0.06869900000000	0.00000000000000	-8.06394900000000	0.00000000000000	0.00000000000000	-13.89786400000000	0.00000000000000	
5.27331300000000	12.65845200000000	213.18717500000000	-7.13045400000000	0.33021200000000	0.00000000000000	0.10052700000000	-82.67514500000000	661.48749799999996	-28.98441000000000	0.04702700000000	0.00000000000000	-0.06849500000000	0.00000000000000	-7.83377600000000	0.00000000000000	0.00000000000000	-13.87602500000000	0.00000000000000	
5.27497200000000	14.35482800000000	221.29265400000000	-6.27032100000000	0.33116800000000	0.00000000000000	0.10066500000000	-83.06232799999999	653.45599900000002	-28.03278300000000	0.04628000000000	0.00000000000000	-0.06829000000000	0.00000000000000	-7.58054900000000	0.00000000000000	0.00000000000000	-13.84987800000000	0.00000000000000	
5.27664400000000	16.09516500000000	229.50091300000000	-5.36668000000000	0.33206700000000	0.00000000000000	0.10079500000000	-83.40418500000000	645.24424999999997	-27.07350500000000	0.04553900000000	0.00000000000000	-0.06808300000000	0.00000000000000	-7.30494000000000	0.00000000000000	0.00000000000000	-13.81909900000000	0.00000000000000	
5.27831300000000	17.87548500000000	237.80935299999999	-4.42209000000000	0.33291100000000	0.00000000000000	0.10091600000000	-83.69840600000001	636.85414900000001	-26.10772300000000	0.04480400000000	0.00000000000000	-0.06787400000000	0.00000000000000	-7.00803800000000	0.00000000000000	0.00000000000000	-13.78336600000000	0.00000000000000	
5.27997300000000	19.69130100000000	246.21658900000000	-3.43965500000000	0.33369700000000	0.00000000000000	0.10103000000000	-83.94274100000000	628.28791100000001	-25.13663100000000	0.04407300000000	0.00000000000000	-0.06766300000000	0.00000000000000	-6.69124900000000	0.00000000000000	0.00000000000000	-13.74237100000000	0.00000000000000	
5.28164700000000	21.53780500000000	254.72202600000000	-2.42284300000000	0.33442400000000	0.00000000000000	0.10113600000000	-84.13500999999999	619.54807000000005	-24.16146200000000	0.04334700000000	0.00000000000000	-0.06745000000000	0.00000000000000	-6.35620200000000	0.00000000000000	0.00000000000000	-13.69581000000000	0.00000000000000	
5.28330700000000	23.41003600000000	263.32544200000001	-1.37532000000000	0.33509400000000	0.00000000000000	0.10123500000000	-84.27311000000000	610.63749299999995	-23.18348700000000	0.04262500000000	0.00000000000000	-0.06723600000000	0.00000000000000	-6.00465400000000	0.00000000000000	0.00000000000000	-13.64339500000000	0.00000000000000	
5.28497900000000	25.30303200000000	272.02661999999998	-0.30080100000000	0.33570400000000	0.00000000000000	0.10132600000000	-84.35503300000001	601.55939000000001	-22.20401100000000	0.04190700000000	0.00000000000000	-0.06702100000000	0.00000000000000	-5.63840600000000	0.00000000000000	0.00000000000000	-13.58484800000000	0.00000000000000	
